<?xml version="1.0" encoding="UTF-8"?>
<svg xmlns="http://www.w3.org/2000/svg" xmlns:xlink="http://www.w3.org/1999/xlink" width="42px" height="42px" viewBox="0 0 42 42" version="1.1">
<g id="surface1">
<path style=" stroke:none;fill-rule:nonzero;fill:rgb(0%,0%,0%);fill-opacity:1;" d="M 17.0625 1.96875 C 17.0625 2.328125 17.226562 2.625 17.421875 2.625 C 17.621094 2.625 18.210938 2.921875 18.734375 3.3125 L 19.6875 3.96875 L 20.539062 3.3125 C 21.03125 2.921875 21.625 2.625 21.851562 2.625 C 22.117188 2.625 22.3125 2.328125 22.3125 1.96875 C 22.3125 1.179688 21.820312 1.148438 20.605469 1.773438 C 19.820312 2.199219 19.554688 2.199219 18.800781 1.773438 C 17.554688 1.148438 17.0625 1.179688 17.0625 1.96875 Z M 17.0625 1.96875 "/>
<path style=" stroke:none;fill-rule:nonzero;fill:rgb(0%,0%,0%);fill-opacity:1;" d="M 10.664062 3.445312 C 10.140625 3.9375 9.84375 4.625 9.84375 5.25 C 9.84375 5.875 10.140625 6.5625 10.664062 7.054688 C 12.273438 8.695312 15.09375 7.546875 15.09375 5.25 C 15.09375 3.90625 13.8125 2.625 12.46875 2.625 C 11.84375 2.625 11.15625 2.921875 10.664062 3.445312 Z M 13.453125 4.429688 C 14.304688 5.480469 13.027344 7.085938 11.910156 6.367188 C 10.761719 5.644531 11.15625 3.9375 12.46875 3.9375 C 12.796875 3.9375 13.222656 4.167969 13.453125 4.429688 Z M 13.453125 4.429688 "/>
<path style=" stroke:none;fill-rule:nonzero;fill:rgb(0%,0%,0%);fill-opacity:1;" d="M 28.808594 4.496094 C 26.839844 6.824219 22.609375 13.222656 22.773438 13.648438 C 22.871094 13.945312 23.164062 14.109375 23.394531 14.042969 C 23.59375 13.945312 25.167969 11.945312 26.875 9.582031 L 29.992188 5.25 L 33.664062 5.25 L 34.617188 6.890625 C 35.503906 8.433594 35.667969 8.53125 36.914062 8.53125 C 38.226562 8.53125 38.292969 8.597656 39.144531 10.335938 C 39.636719 11.320312 40.164062 12.140625 40.359375 12.140625 C 41.113281 12.140625 41.015625 11.125 40.0625 9.21875 C 39.078125 7.285156 38.980469 7.21875 37.765625 7.21875 C 36.585938 7.21875 36.390625 7.085938 35.46875 5.578125 L 34.453125 3.9375 L 31.894531 3.9375 C 29.828125 3.9375 29.203125 4.070312 28.808594 4.496094 Z M 28.808594 4.496094 "/>
<path style=" stroke:none;fill-rule:nonzero;fill:rgb(0%,0%,0%);fill-opacity:1;" d="M 19.03125 5.25 C 19.03125 5.609375 19.195312 5.90625 19.390625 5.90625 C 19.589844 5.90625 20.179688 6.203125 20.703125 6.59375 L 21.65625 7.25 L 22.507812 6.59375 C 23 6.203125 23.59375 5.90625 23.820312 5.90625 C 24.085938 5.90625 24.28125 5.609375 24.28125 5.25 C 24.28125 4.460938 23.789062 4.429688 22.574219 5.054688 C 21.789062 5.480469 21.523438 5.480469 20.769531 5.054688 C 19.523438 4.429688 19.03125 4.460938 19.03125 5.25 Z M 19.03125 5.25 "/>
<path style=" stroke:none;fill-rule:nonzero;fill:rgb(0%,0%,0%);fill-opacity:1;" d="M 3.347656 9.613281 C 2 10.960938 1.707031 11.417969 2.035156 11.746094 C 2.328125 12.042969 2.65625 11.910156 3.511719 11.089844 L 4.59375 10.039062 L 4.59375 11.15625 C 4.59375 12.042969 4.265625 12.601562 3.050781 13.878906 C 1.773438 15.160156 1.574219 15.488281 1.96875 15.75 C 2.328125 15.980469 2.757812 15.78125 3.511719 15.027344 L 4.59375 13.976562 L 4.59375 15.09375 C 4.59375 15.980469 4.265625 16.539062 3.050781 17.785156 C 1.835938 19 1.609375 19.457031 1.902344 19.753906 C 2.199219 20.046875 2.558594 19.882812 3.445312 19.03125 L 4.59375 17.914062 L 4.59375 19.0625 C 4.59375 19.984375 4.296875 20.476562 3.117188 21.65625 C 1.96875 22.773438 1.738281 23.199219 2.035156 23.527344 C 2.328125 23.886719 2.59375 23.789062 3.511719 22.902344 L 4.59375 21.851562 L 4.59375 23.328125 C 4.59375 24.148438 4.429688 24.96875 4.234375 25.167969 C 4.035156 25.363281 3.839844 26.054688 3.773438 26.675781 C 3.707031 27.332031 3.117188 28.808594 2.460938 29.992188 C 1.3125 32.058594 1.28125 32.15625 1.378906 35.339844 L 1.476562 38.554688 L 3.9375 38.554688 C 6.300781 38.554688 6.398438 38.585938 6.792969 39.441406 C 7.480469 41.046875 9.941406 40.949219 10.335938 39.277344 C 10.53125 38.554688 10.632812 38.554688 14.960938 38.652344 L 19.390625 38.75 L 19.71875 37.734375 C 20.113281 36.617188 20.867188 36.09375 22.117188 36.09375 C 22.96875 36.09375 24.28125 37.109375 24.28125 37.734375 C 24.28125 37.898438 23.984375 37.765625 23.625 37.40625 C 23.265625 37.046875 22.671875 36.75 22.3125 36.75 C 21.460938 36.75 20.34375 37.867188 20.34375 38.71875 C 20.34375 39.570312 21.460938 40.6875 22.3125 40.6875 C 23.035156 40.6875 24.28125 39.605469 24.28125 38.980469 C 24.28125 38.6875 25.003906 38.554688 26.808594 38.554688 L 29.367188 38.554688 L 29.464844 35.601562 L 29.5625 32.617188 L 27.59375 30.023438 C 26.511719 28.578125 25.59375 27.167969 25.59375 26.875 C 25.59375 26.609375 26.054688 25.953125 26.578125 25.429688 L 27.5625 24.476562 L 27.5625 27.003906 C 27.5625 29.300781 27.628906 29.53125 28.21875 29.53125 C 28.613281 29.53125 28.875 29.300781 28.875 28.972656 C 28.875 28.546875 29.136719 28.679688 29.957031 29.464844 C 30.875 30.351562 31.140625 30.449219 31.433594 30.089844 C 31.730469 29.761719 31.5 29.335938 30.351562 28.21875 C 29.171875 27.039062 28.875 26.546875 28.875 25.625 L 28.875 24.476562 L 30.023438 25.59375 C 30.910156 26.445312 31.269531 26.609375 31.566406 26.316406 C 31.859375 26.019531 31.632812 25.5625 30.417969 24.347656 C 29.203125 23.101562 28.875 22.542969 28.875 21.65625 L 28.875 20.539062 L 29.957031 21.589844 C 30.710938 22.34375 31.140625 22.542969 31.5 22.3125 C 31.894531 22.050781 31.632812 21.65625 30.089844 20.113281 L 28.21875 18.210938 L 26.316406 20.113281 C 24.804688 21.65625 24.542969 22.050781 24.9375 22.3125 C 25.296875 22.542969 25.726562 22.34375 26.480469 21.589844 L 27.5625 20.539062 L 27.5625 21.6875 C 27.5625 23.265625 25.691406 25.199219 24.675781 24.640625 C 24.3125 24.445312 23.328125 24.28125 22.507812 24.28125 L 21 24.28125 L 21 20.539062 L 22.082031 21.589844 C 22.835938 22.34375 23.265625 22.542969 23.625 22.3125 C 24.019531 22.050781 23.820312 21.722656 22.542969 20.441406 C 21.328125 19.164062 21 18.605469 21 17.71875 L 21 16.601562 L 22.148438 17.71875 C 23.132812 18.671875 23.363281 18.769531 23.625 18.375 C 23.855469 18.015625 23.492188 17.421875 22.148438 16.078125 L 20.34375 14.273438 L 18.539062 16.078125 C 17.195312 17.421875 16.832031 18.015625 17.0625 18.375 C 17.324219 18.769531 17.554688 18.671875 18.539062 17.71875 L 19.6875 16.601562 L 19.6875 17.71875 C 19.6875 18.472656 19.425781 19.128906 18.835938 19.71875 C 18.015625 20.574219 17.949219 20.605469 17.0625 20.082031 C 16.109375 19.523438 16.011719 19.523438 13.714844 20.507812 C 13.191406 20.703125 13.125 20.539062 13.125 19 L 13.125 17.257812 L 14.273438 18.375 C 15.160156 19.226562 15.519531 19.390625 15.816406 19.097656 C 16.109375 18.800781 15.882812 18.34375 14.667969 17.128906 C 13.453125 15.882812 13.125 15.324219 13.125 14.4375 L 13.125 13.320312 L 14.273438 14.4375 C 15.257812 15.390625 15.488281 15.488281 15.75 15.09375 C 15.980469 14.734375 15.617188 14.140625 14.273438 12.796875 L 12.46875 10.992188 L 10.664062 12.796875 C 9.320312 14.140625 8.957031 14.734375 9.1875 15.09375 C 9.449219 15.488281 9.679688 15.390625 10.664062 14.4375 L 11.8125 13.320312 L 11.8125 14.4375 C 11.8125 15.324219 11.484375 15.882812 10.269531 17.128906 C 9.054688 18.34375 8.828125 18.800781 9.121094 19.097656 C 9.417969 19.390625 9.777344 19.226562 10.664062 18.375 L 11.8125 17.257812 L 11.8125 21.328125 L 9.941406 22.179688 C 8.890625 22.640625 7.546875 23.230469 6.988281 23.492188 L 5.90625 23.953125 L 5.90625 22.9375 C 5.90625 22.148438 6.003906 21.984375 6.332031 22.246094 C 6.59375 22.476562 6.921875 22.476562 7.21875 22.3125 C 7.613281 22.082031 7.546875 21.851562 6.792969 21.066406 C 6.203125 20.441406 5.90625 19.785156 5.90625 19.03125 L 5.90625 17.914062 L 7.054688 19.03125 C 7.941406 19.882812 8.300781 20.046875 8.597656 19.753906 C 8.890625 19.457031 8.664062 19 7.449219 17.785156 C 6.234375 16.539062 5.90625 15.980469 5.90625 15.09375 L 5.90625 13.976562 L 6.988281 15.027344 C 7.742188 15.78125 8.171875 15.980469 8.53125 15.75 C 8.925781 15.488281 8.726562 15.160156 7.449219 13.878906 C 6.234375 12.601562 5.90625 12.042969 5.90625 11.15625 L 5.90625 10.039062 L 6.988281 11.089844 C 7.84375 11.910156 8.171875 12.042969 8.464844 11.746094 C 8.792969 11.417969 8.5 10.960938 7.152344 9.613281 C 6.203125 8.664062 5.347656 7.875 5.25 7.875 C 5.152344 7.875 4.296875 8.664062 3.347656 9.613281 Z M 19.6875 22.476562 L 19.6875 24.28125 L 17.390625 24.28125 L 17.882812 23.066406 C 18.34375 21.984375 19.261719 20.671875 19.589844 20.671875 C 19.621094 20.671875 19.6875 21.492188 19.6875 22.476562 Z M 16.046875 24.085938 C 15.71875 24.742188 15.71875 25.132812 16.046875 25.789062 C 16.242188 26.28125 16.375 26.710938 16.308594 26.808594 C 16.242188 26.875 14.339844 26.875 12.109375 26.839844 L 8.039062 26.742188 L 12.140625 24.90625 C 14.40625 23.886719 16.273438 23.101562 16.339844 23.132812 C 16.375 23.164062 16.242188 23.59375 16.046875 24.085938 Z M 6.5625 28.382812 C 6.5625 28.449219 6.167969 29.335938 5.675781 30.351562 C 4.890625 31.925781 4.660156 32.15625 3.839844 32.15625 C 3.3125 32.15625 2.953125 32.058594 3.019531 31.894531 C 3.085938 31.761719 3.542969 30.875 4.070312 29.925781 C 4.789062 28.613281 5.21875 28.21875 5.808594 28.21875 C 6.203125 28.21875 6.5625 28.285156 6.5625 28.382812 Z M 12.46875 30.1875 L 12.46875 32.15625 L 9.515625 32.15625 C 7.875 32.15625 6.5625 32.089844 6.5625 31.992188 C 6.5625 31.925781 6.957031 31.039062 7.449219 30.023438 L 8.335938 28.21875 L 12.46875 28.21875 Z M 18.375 30.1875 L 18.375 32.15625 L 13.78125 32.15625 L 13.78125 28.21875 L 18.375 28.21875 Z M 23.265625 30.023438 C 23.984375 31.007812 24.609375 31.894531 24.609375 31.992188 C 24.609375 32.089844 23.492188 32.15625 22.148438 32.15625 L 19.6875 32.15625 L 19.6875 28.21875 L 20.804688 28.21875 C 21.753906 28.21875 22.082031 28.449219 23.265625 30.023438 Z M 25.890625 30.023438 C 27.300781 31.859375 27.429688 32.15625 26.9375 32.15625 C 26.675781 32.15625 23.953125 28.742188 23.953125 28.382812 C 23.953125 27.824219 24.707031 28.449219 25.890625 30.023438 Z M 9.84375 36.75 C 10.203125 37.109375 10.5 37.539062 10.5 37.734375 C 10.5 37.898438 10.203125 37.765625 9.84375 37.40625 C 9.484375 37.046875 8.890625 36.75 8.53125 36.75 C 8.171875 36.75 7.578125 37.046875 7.21875 37.40625 C 6.859375 37.765625 6.5625 37.898438 6.5625 37.734375 C 6.5625 37.175781 7.84375 36.09375 8.53125 36.09375 C 8.890625 36.09375 9.484375 36.390625 9.84375 36.75 Z M 9.054688 38.421875 C 9.382812 38.980469 8.628906 39.605469 8.171875 39.144531 C 7.777344 38.75 8.039062 38.0625 8.53125 38.0625 C 8.695312 38.0625 8.925781 38.226562 9.054688 38.421875 Z M 22.835938 38.421875 C 23.164062 38.980469 22.410156 39.605469 21.953125 39.144531 C 21.558594 38.75 21.820312 38.0625 22.3125 38.0625 C 22.476562 38.0625 22.707031 38.226562 22.835938 38.421875 Z M 22.835938 38.421875 "/>
<path style=" stroke:none;fill-rule:nonzero;fill:rgb(0%,0%,0%);fill-opacity:1;" d="M 33.699219 12.796875 C 33.171875 13.683594 32.945312 13.78125 31.402344 13.78125 C 29.828125 13.78125 29.628906 13.878906 28.972656 14.929688 C 28.25 16.046875 28.25 16.078125 28.875 16.40625 C 29.398438 16.703125 29.597656 16.601562 30.054688 15.914062 C 30.382812 15.390625 30.910156 15.09375 31.402344 15.09375 C 32.089844 15.09375 32.15625 15.191406 31.859375 15.554688 C 31.53125 15.945312 31.597656 16.109375 32.125 16.40625 C 32.714844 16.703125 32.945312 16.539062 33.992188 14.929688 C 35.109375 13.289062 35.304688 13.125 36.421875 13.125 C 37.539062 13.125 37.734375 13.289062 38.816406 14.929688 C 39.636719 16.144531 40.195312 16.667969 40.523438 16.539062 C 41.246094 16.242188 41.148438 15.847656 39.800781 13.714844 L 38.554688 11.8125 L 36.421875 11.8125 C 34.386719 11.8125 34.222656 11.878906 33.699219 12.796875 Z M 33.699219 12.796875 "/>
<path style=" stroke:none;fill-rule:nonzero;fill:rgb(0%,0%,0%);fill-opacity:1;" d="M 34.78125 31.632812 C 34.78125 32.089844 34.648438 32.550781 34.453125 32.648438 C 34.289062 32.746094 34.125 32.550781 34.125 32.1875 C 34.125 31.730469 33.929688 31.5 33.46875 31.5 C 32.515625 31.5 32.617188 32.976562 33.632812 33.960938 C 34.75 35.109375 35.207031 34.976562 35.699219 33.46875 C 36.289062 31.566406 36.226562 30.84375 35.4375 30.84375 C 34.945312 30.84375 34.78125 31.074219 34.78125 31.632812 Z M 34.78125 31.632812 "/>
<path style=" stroke:none;fill-rule:nonzero;fill:rgb(0%,0%,0%);fill-opacity:1;" d="M 31.5 34.945312 C 31.5 35.40625 31.859375 36.160156 32.320312 36.585938 C 33.46875 37.765625 36.09375 37.765625 37.242188 36.585938 C 37.703125 36.160156 38.0625 35.570312 38.0625 35.273438 C 38.0625 34.550781 36.980469 34.648438 36.488281 35.4375 C 36.191406 35.898438 35.734375 36.09375 34.847656 36.09375 C 33.5 36.09375 32.8125 35.632812 32.8125 34.714844 C 32.8125 34.355469 32.582031 34.125 32.15625 34.125 C 31.664062 34.125 31.5 34.355469 31.5 34.945312 Z M 31.5 34.945312 "/>
<path style=" stroke:none;fill-rule:nonzero;fill:rgb(0%,0%,0%);fill-opacity:1;" d="M 31.632812 39.078125 C 31.304688 39.636719 32.058594 40.261719 32.515625 39.800781 C 32.910156 39.40625 32.648438 38.71875 32.15625 38.71875 C 31.992188 38.71875 31.761719 38.882812 31.632812 39.078125 Z M 31.632812 39.078125 "/>
<path style=" stroke:none;fill-rule:nonzero;fill:rgb(0%,0%,0%);fill-opacity:1;" d="M 33.601562 39.078125 C 33.273438 39.636719 34.027344 40.261719 34.484375 39.800781 C 34.878906 39.40625 34.617188 38.71875 34.125 38.71875 C 33.960938 38.71875 33.730469 38.882812 33.601562 39.078125 Z M 33.601562 39.078125 "/>
<path style=" stroke:none;fill-rule:nonzero;fill:rgb(0%,0%,0%);fill-opacity:1;" d="M 35.570312 39.078125 C 35.242188 39.636719 35.996094 40.261719 36.453125 39.800781 C 36.847656 39.40625 36.585938 38.71875 36.09375 38.71875 C 35.929688 38.71875 35.699219 38.882812 35.570312 39.078125 Z M 35.570312 39.078125 "/>
<path style=" stroke:none;fill-rule:nonzero;fill:rgb(0%,0%,0%);fill-opacity:1;" d="M 37.539062 39.078125 C 37.210938 39.636719 37.964844 40.261719 38.421875 39.800781 C 38.816406 39.40625 38.554688 38.71875 38.0625 38.71875 C 37.898438 38.71875 37.667969 38.882812 37.539062 39.078125 Z M 37.539062 39.078125 "/>
</g>
</svg>
