<?xml version="1.0" standalone="no"?>
<!DOCTYPE svg PUBLIC "-//W3C//DTD SVG 20010904//EN"
 "http://www.w3.org/TR/2001/REC-SVG-20010904/DTD/svg10.dtd">
<svg version="1.0" xmlns="http://www.w3.org/2000/svg"
 width="128.000000pt" height="128.000000pt" viewBox="0 0 128.000000 128.000000"
 preserveAspectRatio="xMidYMid meet">

<g transform="translate(0.000000,128.000000) scale(0.100000,-0.100000)"
fill="#000000" stroke="none">
<path d="M520 1220 c0 -11 5 -20 11 -20 6 0 24 -9 40 -21 l29 -20 26 20 c15
12 33 21 40 21 8 0 14 9 14 20 0 24 -15 25 -52 6 -24 -13 -32 -13 -55 0 -38
19 -53 18 -53 -6z"/>
<path d="M325 1175 c-16 -15 -25 -36 -25 -55 0 -19 9 -40 25 -55 49 -50 135
-15 135 55 0 41 -39 80 -80 80 -19 0 -40 -9 -55 -25z m85 -30 c26 -32 -13 -81
-47 -59 -35 22 -23 74 17 74 10 0 23 -7 30 -15z"/>
<path d="M878 1143 c-60 -71 -189 -266 -184 -279 3 -9 12 -14 19 -12 6 3 54
64 106 136 l95 132 56 0 56 0 29 -50 c27 -47 32 -50 70 -50 40 0 42 -2 68 -55
15 -30 31 -55 37 -55 23 0 20 31 -9 89 -30 59 -33 61 -70 61 -36 0 -42 4 -70
50 l-31 50 -78 0 c-63 0 -82 -4 -94 -17z"/>
<path d="M580 1120 c0 -11 5 -20 11 -20 6 0 24 -9 40 -21 l29 -20 26 20 c15
12 33 21 40 21 8 0 14 9 14 20 0 24 -15 25 -52 6 -24 -13 -32 -13 -55 0 -38
19 -53 18 -53 -6z"/>
<path d="M102 987 c-41 -41 -50 -55 -40 -65 9 -9 19 -5 45 20 l33 32 0 -34 c0
-27 -10 -44 -47 -83 -39 -39 -45 -49 -33 -57 11 -7 24 -1 47 22 l33 32 0 -34
c0 -27 -10 -44 -47 -82 -37 -37 -44 -51 -35 -60 9 -9 20 -4 47 22 l35 34 0
-35 c0 -28 -9 -43 -45 -79 -35 -34 -42 -47 -33 -57 9 -11 17 -8 45 19 l33 32
0 -45 c0 -25 -5 -50 -11 -56 -6 -6 -12 -27 -14 -46 -2 -20 -20 -65 -40 -101
-35 -63 -36 -66 -33 -163 l3 -98 75 0 c72 0 75 -1 87 -27 21 -49 96 -46 108 5
6 22 9 22 141 19 l135 -3 10 31 c12 34 35 50 73 50 26 0 66 -31 66 -50 0 -5
-9 -1 -20 10 -11 11 -29 20 -40 20 -26 0 -60 -34 -60 -60 0 -26 34 -60 60 -60
22 0 60 33 60 52 0 9 22 13 77 13 l78 0 3 90 3 91 -60 79 c-33 44 -61 87 -61
96 0 8 14 28 30 44 l30 29 0 -77 c0 -70 2 -77 20 -77 12 0 20 7 20 17 0 13 8
9 33 -15 28 -27 36 -30 45 -19 9 10 2 23 -33 57 -36 36 -45 51 -45 79 l0 35
35 -34 c27 -26 38 -31 47 -22 9 9 2 23 -35 60 -37 38 -47 55 -47 82 l0 34 33
-32 c23 -23 36 -29 47 -22 12 8 4 20 -43 67 l-57 58 -58 -58 c-46 -47 -54 -59
-42 -67 11 -7 24 -1 47 22 l33 32 0 -35 c0 -48 -57 -107 -88 -90 -11 6 -41 11
-66 11 l-46 0 0 57 0 57 33 -32 c23 -23 36 -29 47 -22 12 8 6 18 -33 57 -37
39 -47 56 -47 83 l0 34 35 -34 c30 -29 37 -32 45 -20 7 11 -4 29 -45 70 l-55
55 -55 -55 c-41 -41 -52 -59 -45 -70 8 -12 15 -9 45 20 l35 34 0 -34 c0 -23
-8 -43 -26 -61 -25 -26 -27 -27 -54 -11 -29 17 -32 17 -102 -13 -16 -6 -18 -1
-18 46 l0 53 35 -34 c27 -26 38 -31 47 -22 9 9 2 23 -35 60 -37 38 -47 55 -47
82 l0 34 35 -34 c30 -29 37 -32 45 -20 7 11 -4 29 -45 70 l-55 55 -55 -55
c-41 -41 -52 -59 -45 -70 8 -12 15 -9 45 20 l35 34 0 -34 c0 -27 -10 -44 -47
-82 -37 -37 -44 -51 -35 -60 9 -9 20 -4 47 22 l35 34 0 -62 0 -62 -57 -26
c-32 -14 -73 -32 -90 -40 l-33 -14 0 31 c0 24 3 29 13 21 8 -7 18 -7 27 -2 12
7 10 14 -13 38 -18 19 -27 39 -27 62 l0 34 35 -34 c27 -26 38 -31 47 -22 9 9
2 23 -35 60 -37 38 -47 55 -47 82 l0 34 33 -32 c23 -23 36 -29 47 -22 12 8 6
18 -33 57 -37 39 -47 56 -47 83 l0 34 33 -32 c26 -25 36 -29 45 -20 10 10 1
24 -40 65 -29 29 -55 53 -58 53 -3 0 -29 -24 -58 -53z m498 -392 l0 -55 -35 0
-35 0 15 37 c14 33 42 73 52 73 1 0 3 -25 3 -55z m-111 -49 c-10 -20 -10 -32
0 -52 6 -15 10 -28 8 -31 -2 -2 -60 -2 -128 -1 l-124 3 125 56 c69 31 126 55
128 54 1 -1 -3 -14 -9 -29z m-289 -131 c0 -2 -12 -29 -27 -60 -24 -48 -31 -55
-56 -55 -16 0 -27 3 -25 8 2 4 16 31 32 60 22 40 35 52 53 52 12 0 23 -2 23
-5z m180 -55 l0 -60 -90 0 c-50 0 -90 2 -90 5 0 2 12 29 27 60 l27 55 63 0 63
0 0 -60z m180 0 l0 -60 -70 0 -70 0 0 60 0 60 70 0 70 0 0 -60z m149 5 c22
-30 41 -57 41 -60 0 -3 -34 -5 -75 -5 l-75 0 0 60 0 60 34 0 c29 0 39 -7 75
-55z m80 0 c43 -56 47 -65 32 -65 -8 0 -91 104 -91 115 0 17 23 -2 59 -50z
m-489 -205 c11 -11 20 -24 20 -30 0 -5 -9 -1 -20 10 -11 11 -29 20 -40 20 -11
0 -29 -9 -40 -20 -11 -11 -20 -15 -20 -10 0 17 39 50 60 50 11 0 29 -9 40 -20z
m-24 -51 c10 -17 -13 -36 -27 -22 -12 12 -4 33 11 33 5 0 12 -5 16 -11z m420
0 c10 -17 -13 -36 -27 -22 -12 12 -4 33 11 33 5 0 12 -5 16 -11z"/>
<path d="M1027 890 c-16 -27 -23 -30 -70 -30 -48 0 -54 -3 -74 -35 -22 -34
-22 -35 -3 -45 16 -9 22 -6 36 15 10 16 26 25 41 25 21 0 23 -3 14 -14 -10
-12 -8 -17 8 -26 18 -9 25 -4 57 45 34 50 40 55 74 55 34 0 40 -5 73 -55 25
-37 42 -53 52 -49 22 9 19 21 -22 86 l-38 58 -65 0 c-62 0 -67 -2 -83 -30z"/>
<path d="M1060 316 c0 -14 -4 -28 -10 -31 -5 -3 -10 3 -10 14 0 14 -6 21 -20
21 -29 0 -26 -45 5 -75 34 -35 48 -31 63 15 18 58 16 80 -8 80 -15 0 -20 -7
-20 -24z"/>
<path d="M960 215 c0 -14 11 -37 25 -50 35 -36 115 -36 150 0 14 13 25 31 25
40 0 22 -33 19 -48 -5 -9 -14 -23 -20 -50 -20 -41 0 -62 14 -62 42 0 11 -7 18
-20 18 -15 0 -20 -7 -20 -25z"/>
<path d="M964 89 c-10 -17 13 -36 27 -22 12 12 4 33 -11 33 -5 0 -12 -5 -16
-11z"/>
<path d="M1024 89 c-10 -17 13 -36 27 -22 12 12 4 33 -11 33 -5 0 -12 -5 -16
-11z"/>
<path d="M1084 89 c-10 -17 13 -36 27 -22 12 12 4 33 -11 33 -5 0 -12 -5 -16
-11z"/>
<path d="M1144 89 c-10 -17 13 -36 27 -22 12 12 4 33 -11 33 -5 0 -12 -5 -16
-11z"/>
</g>
</svg>
